<svg xmlns="http://www.w3.org/2000/svg" xmlns:xlink="http://www.w3.org/1999/xlink" version="1.1" x="0px" y="0px" viewBox="0 0 29 36.25" style="enable-background:new 0 0 29 29;" xml:space="preserve"><style type="text/css">
	.st0{fill:none;stroke:#000000;stroke-width:2;stroke-miterlimit:10;}
	.st1{fill:none;stroke:#000000;stroke-width:2;stroke-linecap:round;stroke-linejoin:round;stroke-miterlimit:10;}
	.st2{fill:none;stroke:#000000;stroke-miterlimit:10;}
	.st3{fill:none;stroke:#000000;stroke-width:2;stroke-miterlimit:10;stroke-dasharray:1.7411,1.7411;}
	.st4{fill:none;stroke:#000000;stroke-width:2;stroke-linecap:round;stroke-linejoin:round;stroke-dasharray:2.0261,4.0522;}
</style><g><path class="st2" d="M4.25,9h17c1.105,0,2,0.895,2,2v7c0,1.105-0.895,2-2,2h-17c-1.105,0-2-0.895-2-2v-7C2.25,9.895,3.145,9,4.25,9   z"/><path d="M4.75,10.5h13v8h-13c-0.552,0-1-0.448-1-1v-6C3.75,10.948,4.198,10.5,4.75,10.5z"/><g><path d="M24.75,12.05v4.899c1.141-0.232,2-1.24,2-2.45C26.75,13.291,25.891,12.282,24.75,12.05z"/></g></g><g><path class="st2" d="M4.25,9h17c1.105,0,2,0.895,2,2v7c0,1.105-0.895,2-2,2h-17c-1.105,0-2-0.895-2-2v-7C2.25,9.895,3.145,9,4.25,9   z"/><path d="M4.75,10.5h13v8h-13c-0.552,0-1-0.448-1-1v-6C3.75,10.948,4.198,10.5,4.75,10.5z"/><g><path d="M24.75,12.05v4.899c1.141-0.232,2-1.24,2-2.45C26.75,13.291,25.891,12.282,24.75,12.05z"/></g></g><text x="0" y="44" fill="#000000" font-size="5px" font-weight="bold" font-family="'Helvetica Neue', Helvetica, Arial-Unicode, Arial, Sans-serif">Created by Chameleon Design</text><text x="0" y="49" fill="#000000" font-size="5px" font-weight="bold" font-family="'Helvetica Neue', Helvetica, Arial-Unicode, Arial, Sans-serif">from the Noun Project</text></svg>